<?xml version="1.0" encoding="utf-8"?>
<!-- Generator: Adobe Illustrator 15.0.0, SVG Export Plug-In  -->
<!DOCTYPE svg PUBLIC "-//W3C//DTD SVG 1.1//EN" "http://www.w3.org/Graphics/SVG/1.1/DTD/svg11.dtd" [
	<!ENTITY ns_flows "http://ns.adobe.com/Flows/1.0/">
]>
<svg version="1.1"
	 xmlns="http://www.w3.org/2000/svg" xmlns:xlink="http://www.w3.org/1999/xlink" xmlns:a="http://ns.adobe.com/AdobeSVGViewerExtensions/3.0/"
	 x="0px" y="0px" width="119px" height="119px" viewBox="-2.336 -1.828 119 119" enable-background="new -2.336 -1.828 119 119"
	 xml:space="preserve">
<defs>
</defs>
<path fill="#F5866C" d="M57.107,0C25.568,0,0,25.568,0,57.107c0,31.539,25.568,57.107,57.107,57.107
	c31.539,0,57.107-25.568,57.107-57.107C114.214,25.568,88.646,0,57.107,0z M75.492,92.05c-2.033-2.868-3.605-6.195-5.99-8.712
	c-14.599,15.355-47.51,9.721-47.365-13.609c0.07-11.302,6.956-17.001,14.699-21.778c-3.526-4.692-6.964-8.756-6.533-16.333
	c0.885-15.525,23.418-22.169,32.666-9.8c5.602,7.49,3.021,21.073-6.533,24.5c-2.103-0.438-3.516-2.381-3.811-3.811
	c0.23-3.036,3.762-4.454,4.356-7.622c3.124-16.665-24.218-12.783-16.334,3.267c5.432,11.06,22.145,23.552,27.969,32.354
	c2.438-2.753,4.307-7.2,5.785-10.032c2.611,0.11,4.254,0.815,5.988,2.178c-1.088,5.264-3.596,9.105-5.988,13.066
	c2.789,5.196,5.086,5.834,8.711,15.244C81.927,92.678,78.074,92.808,75.492,92.05z M90.658,92.491c-1.686,0-3.051-1.364-3.051-3.049
	c0-1.683,1.365-3.048,3.051-3.048c1.682,0,3.047,1.365,3.047,3.048C93.705,91.127,92.339,92.491,90.658,92.491z"/>
<path fill="#F5866C" d="M41.736,53.939c-4.014,3.615-8.757,6.541-9.8,11.977c-3.549,18.502,22.339,22.762,31.032,10.889
	C56.205,68.869,49.206,61.168,41.736,53.939z"/>
</svg>
